:SAMPLES-PER-SECOND 24
:FULLY-SPECIFIED
:DEGREES
423
root  0.12983 38.6242 55.4239 179.351 -39.5604 175.872
RightUpLeg  -11.9102 -9.45145 -11.8253
RightLeg  28.3377 8.16042 4.52859
RightFoot  -10.4857 -0.119271 6.36538
RightToes  -1.74623e-010 0 -2.59999e-017
Spine  8.0545 -2.57037 -1.68584
Spine1  18.07 -5.08158 6.09308
HEad  -14.1739 -22.1668 8.66485
LeftShoulder1  1.99149 -3.25076 -23.2181
LeftArm  14.5704 -10.0311 -54.5042
LeftForeArm  97.7297 -79.506 -101.802
LeftHand  -0.0226763 5.31794 13.8803
RightShoulder  3.30394 5.70512 29.9695
RightArm  -25.4019 14.8514 24.2436
RightForeArm  23.964 66.2216 23.997
RightHand  -0.1097 -4.79718 -19.6089
LeftUpLeg  -1.69373 7.20028 18.7855
LeftLeg  30.8474 9.24494 6.25043
LeftFoot  8.27353 1.60957 -9.65198
LeftToes  -6.27559e-011 -2.10356e-011 8.24929e-012
424
root  0.371923 39.2037 54.6096 -179.573 -39.9571 174.874
RightUpLeg  -9.31967 -9.63798 -11.4529
RightLeg  23.9387 7.98521 3.64662
RightFoot  -8.87767 -0.186686 5.8804
RightToes  -1.74623e-010 0 -2.59999e-017
Spine  7.36505 -2.56209 -0.909095
Spine1  17.6151 -4.5349 5.30516
HEad  -14.1699 -22.8728 7.65443
LeftShoulder1  2.0164 -3.32261 -23.2758
LeftArm  16.1308 -10.0204 -53.8725
LeftForeArm  103.212 -79.2629 -107.154
LeftHand  -0.0106926 5.41393 14.5621
RightShoulder  3.13054 5.513 28.7844
RightArm  -28.3072 17.0722 23.863
RightForeArm  30.6745 71.0136 31.4782
RightHand  -0.158697 -4.56684 -21.2816
LeftUpLeg  -5.05252 8.37859 13.542
LeftLeg  33.1436 5.15551 3.97096
LeftFoot  4.48897 1.44527 -10.5794
LeftToes  -6.27559e-011 -2.10356e-011 8.24929e-012
425
root  0.564196 39.6781 53.7907 -178.896 -40.2408 174.522
RightUpLeg  -6.62064 -10.6545 -10.72
RightLeg  19.4577 8.58133 3.16311
RightFoot  -7.37792 -0.228313 5.14391
RightToes  -1.74623e-010 0 -2.59999e-017
Spine  6.67775 -2.08629 0.104436
Spine1  16.9144 -3.54326 4.2488
HEad  -14.3146 -24.3611 7.31499
LeftShoulder1  2.05663 -3.39544 -23.5623
LeftArm  17.2367 -9.10369 -53.0082
LeftForeArm  109.414 -78.8365 -113.359
LeftHand  -0.007552 5.4327 15.1699
RightShoulder  2.97887 5.32335 27.7843
RightArm  -29.7716 17.798 22.5161
RightForeArm  35.9074 74.142 39.8158
RightHand  -0.373737 -3.60455 -23.8016
LeftUpLeg  -7.91985 12.2163 8.60698
LeftLeg  33.2896 5.18268 4.01033
LeftFoot  1.94534 0.98423 -8.5417
LeftToes  -6.27559e-011 -2.10356e-011 8.24929e-012
426
root  0.738276 40.0086 52.9758 -179.051 -40.8785 175.233
RightUpLeg  -3.6876 -10.456 -9.51113
RightLeg  15.0387 7.51267 2.96902
RightFoot  -6.49803 -0.260329 5.10146
RightToes  -1.74623e-010 0 -2.59999e-017
Spine  6.11221 -1.49974 1.21391
Spine1  16.3698 -2.64747 3.53736
HEad  -14.589 -26.0861 7.50997
LeftShoulder1  2.08512 -3.46077 -23.6991
LeftArm  17.8819 -7.84978 -51.9974
LeftForeArm  114.821 -78.2263 -119.367
LeftHand  -0.00863584 5.42035 15.5329
RightShoulder  2.89401 5.23678 27.126
RightArm  -30.1842 17.7761 20.3256
RightForeArm  36.7709 75.1828 44.2864
RightHand  -0.736683 -2.09586 -25.6771
LeftUpLeg  -10.0895 16.3561 4.21677
LeftLeg  31.0318 6.80102 4.74558
LeftFoot  -0.673554 0.652769 -6.98063
LeftToes  -6.27559e-011 -2.10356e-011 8.24929e-012
427
root  0.881277 40.143 52.1738 -179.76 -42.3232 176.886
RightUpLeg  -1.43028 -8.58673 -7.60687
RightLeg  12.0367 4.31342 3.12734
RightFoot  -6.20737 -0.287653 5.47571
RightToes  -1.74623e-010 0 -2.59999e-017
Spine  5.17072 -1.09103 2.10568
Spine1  16.4492 -2.25026 3.63639
HEad  -15.0828 -27.7021 8.41109
LeftShoulder1  2.09908 -3.47133 -23.862
LeftArm  18.1263 -6.90439 -50.6821
LeftForeArm  118.934 -77.6551 -123.79
LeftHand  -0.000918911 5.4887 14.9749
RightShoulder  2.88207 5.25102 26.9282
RightArm  -29.962 17.0501 18.35
RightForeArm  32.0466 74.1785 41.0202
RightHand  -1.07812 -0.522792 -25.4988
LeftUpLeg  -12.0629 19.4558 0.550216
LeftLeg  26.9323 5.28821 3.28331
LeftFoot  -2.71096 0.629587 -8.10615
LeftToes  -6.27559e-011 -2.10356e-011 8.24929e-012
428
root  0.992078 40.1117 51.3495 178.663 -44.4753 178.961
RightUpLeg  0.789959 -7.15037 -5.28407
RightLeg  10.5365 0.758766 3.41566
RightFoot  -6.88237 -0.248633 5.18606
RightToes  -1.74623e-010 0 -2.59999e-017
Spine  4.45863 -0.857475 2.49062
Spine1  16.9775 -2.15396 3.95559
HEad  -15.6495 -29.4001 10.252
LeftShoulder1  2.08956 -3.46221 -23.7596
LeftArm  18.5815 -6.55794 -49.6934
LeftForeArm  118.848 -77.3916 -125.088
LeftHand  0.0286983 5.71503 15.1732
RightShoulder  2.92789 5.30016 27.2773
RightArm  -28.4088 15.0467 17.4796
RightForeArm  22.8079 70.8472 32.5555
RightHand  -1.30222 0.618023 -24.9783
LeftUpLeg  -12.6856 22.022 -2.55028
LeftLeg  21.0163 2.54856 1.57133
LeftFoot  -2.11604 0.544145 -6.58452
LeftToes  -6.27559e-011 -2.10356e-011 8.24929e-012
429
root  1.0342 39.9523 50.4944 176.071 -46.8591 -178.737
RightUpLeg  3.08675 -8.05308 -3.16698
RightLeg  10.8214 -1.04645 3.82879
RightFoot  -8.65016 -0.161697 4.37876
RightToes  -1.74623e-010 0 -2.59999e-017
Spine  4.37516 -0.682331 2.3834
Spine1  17.2369 -2.08333 4.17796
HEad  -15.3607 -31.0697 12.0094
LeftShoulder1  2.06662 -3.45343 -23.4522
LeftArm  19.7321 -6.61483 -49.3142
LeftForeArm  114.789 -77.488 -123.488
LeftHand  0.0728741 6.00769 16.1813
RightShoulder  3.01708 5.3847 27.9874
RightArm  -24.5143 11.6261 17.8038
RightForeArm  12.5718 64.8211 23.7173
RightHand  -1.40549 1.06772 -25.09
LeftUpLeg  -10.6082 17.0741 -3.50129
LeftLeg  14.8754 11.0365 2.39816
LeftFoot  -1.21464 -0.162071 1.91215
LeftToes  -6.27559e-011 -2.10356e-011 8.24929e-012
430
root  1.05848 39.7399 49.592 173.505 -49.1669 -176.899
RightUpLeg  4.59392 -14.2037 -1.88193
RightLeg  13.5531 2.92755 3.55157
RightFoot  -10.259 -0.105497 3.79266
RightToes  -1.74623e-010 0 -2.59999e-017
Spine  4.4383 -0.227463 0.288797
Spine1  17.3624 -2.17727 5.53154
HEad  -14.6353 -32.452 13.5198
LeftShoulder1  2.06836 -3.39547 -23.7416
LeftArm  21.0752 -7.12457 -48.952
LeftForeArm  112.796 -77.6436 -122.102
LeftHand  0.105327 6.29308 15.5148
RightShoulder  3.15035 5.51934 28.9849
RightArm  -18.447 7.33336 18.9403
RightForeArm  5.022 56.2473 16.6328
RightHand  -1.39423 1.27495 -24.1523
LeftUpLeg  -8.62969 7.56074 -2.55499
LeftLeg  14.1293 24.2538 5.12195
LeftFoot  -2.86595 -0.652772 8.96977
LeftToes  -6.27559e-011 -2.10356e-011 8.24929e-012
431
root  1.16171 39.5562 48.6334 172.396 -51.5393 -176.758
RightUpLeg  4.0095 -22.3887 -1.93976
RightLeg  20.0027 8.79503 3.32858
RightFoot  -11.2604 -0.0792425 2.33731
RightToes  -1.74623e-010 0 -2.59999e-017
Spine  4.77573 0.585294 -4.32317
Spine1  17.3208 -2.31043 7.61713
HEad  -14.567 -33.8402 15.8041
LeftShoulder1  2.0859 -3.31259 -24.3939
LeftArm  22.0658 -7.99496 -48.3191
LeftForeArm  115.439 -77.5348 -123.427
LeftHand  0.108607 6.48753 13.4191
RightShoulder  3.31581 5.65788 30.2901
RightArm  -10.8909 2.53748 21.3792
RightForeArm  0.486795 45.3386 11.3272
RightHand  -1.32317 1.65209 -21.7984
LeftUpLeg  -8.50662 9.46966 -1.52417
LeftLeg  17.8043 20.4291 6.56335
LeftFoot  -5.37788 -0.317395 6.51612
LeftToes  -6.27559e-011 -2.10356e-011 8.24929e-012
432
root  1.23253 39.4082 47.7532 173.177 -54.4819 -178.138
RightUpLeg  0.0298601 -26.8965 -3.70263
RightLeg  31.5128 10.0074 6.29239
RightFoot  -10.316 -0.0613825 1.19531
RightToes  -1.74623e-010 0 -2.59999e-017
Spine  5.4618 0.952278 -8.4386
Spine1  16.432 -2.33143 8.10277
HEad  -14.782 -35.292 18.031
LeftShoulder1  2.09233 -3.28585 -24.6192
LeftArm  22.5104 -8.33164 -47.5438
LeftForeArm  119.03 -77.085 -126.581
LeftHand  0.0906155 6.41315 12.4429
RightShoulder  3.44218 5.75589 31.2863
RightArm  -0.648786 -2.27582 26.0297
RightForeArm  -4.82941 32.1573 7.17746
RightHand  -1.11881 1.50737 -18.9397
LeftUpLeg  -8.81615 14.5261 -0.791484
LeftLeg  19.9469 11.3328 4.22708
LeftFoot  -6.50674 -0.0700556 2.60558
LeftToes  -6.27559e-011 -2.10356e-011 8.24929e-012
433
root  1.20558 39.2053 47.0442 175.577 -58.4068 179.572
RightUpLeg  -6.44722 -31.6694 -7.12163
RightLeg  46.0616 12.167 12.9178
RightFoot  -4.15439 -0.450569 6.71528
RightToes  -1.74623e-010 0 -2.59999e-017
Spine  5.85484 0.518468 -10.9402
Spine1  15.4174 -2.64326 6.91281
HEad  -15.3974 -36.6316 18.9303
LeftShoulder1  2.11536 -3.32345 -24.7948
LeftArm  22.5628 -8.39933 -46.7718
LeftForeArm  120.441 -76.6958 -128.653
LeftHand  0.078142 6.27735 12.6449
RightShoulder  3.53614 5.85456 31.9032
RightArm  7.65994 -7.18596 31.0063
RightForeArm  -6.44091 19.4685 7.23373
RightHand  -0.617162 -0.278511 -14.0277
LeftUpLeg  -9.64385 13.374 -1.62079
LeftLeg  21.1891 9.53219 3.33661
LeftFoot  -7.22516 -0.0467329 2.51075
LeftToes  -6.27559e-011 -2.10356e-011 8.24929e-012
434
root  1.19229 38.8959 46.3341 177.711 -62.6143 177.605
RightUpLeg  -12.1896 -33.4492 -10.523
RightLeg  57.8048 12.6489 20.2004
RightFoot  3.262 -1.9862 15.7856
RightToes  -1.74623e-010 0 -2.59999e-017
Spine  6.15375 0.276872 -12.4283
Spine1  15.2519 -2.91175 5.80396
HEad  -17.7401 -38.1898 19.6287
LeftShoulder1  2.14656 -3.35166 -25.1377
LeftArm  22.8395 -9.36336 -46.4689
LeftForeArm  119.865 -76.7956 -128.083
LeftHand  0.0912278 6.40105 12.6468
RightShoulder  3.73026 6.03855 33.2094
RightArm  -2.32524 -13.3585 33.2688
RightForeArm  12.5332 9.6988 12.2338
RightHand  -0.195339 -2.2979 -7.12667
LeftUpLeg  -11.1873 10.1554 -2.36323
LeftLeg  24.0467 8.84507 3.92516
LeftFoot  -9.05479 0.0149661 1.88213
LeftToes  -6.27559e-011 -2.10356e-011 8.24929e-012
435
root  1.20074 38.7477 45.4918 177.462 -65.8614 177.524
RightUpLeg  -14.9464 -31.9154 -12.7709
RightLeg  63.4961 11.1194 22.4084
RightFoot  4.47163 -2.42602 17.567
RightToes  -1.74623e-010 0 -2.59999e-017
Spine  7.05305 0.65567 -12.644
Spine1  15.2967 -2.66384 5.21561
HEad  -20.9906 -39.4664 20.6695
LeftShoulder1  2.13894 -3.30606 -25.2393
LeftArm  23.0788 -9.92467 -46.3377
LeftForeArm  120.13 -76.9039 -127.686
LeftHand  0.108487 6.5837 12.4627
RightShoulder  4.00238 6.26873 35.0579
RightArm  -2.65795 -20.618 35.0937
RightForeArm  21.5271 7.9223 12.423
RightHand  -0.0512951 -2.91252 -1.86631
LeftUpLeg  -11.5116 9.26835 -1.26775
LeftLeg  26.1238 5.92197 3.2772
LeftFoot  -10.459 0.0640628 -0.0944925
LeftToes  -6.27559e-011 -2.10356e-011 8.24929e-012
